<svg width="49" height="65" viewBox="0 0 49 65" fill="none" xmlns="http://www.w3.org/2000/svg">
<circle cx="20" cy="45" r="20" fill="url(#paint0_linear_2_260)"/>
<path d="M6 45.245C6 47.867 8.133 50 10.755 50H29.112C31.734 50 33.867 47.867 33.867 45.245V40.43C33.867 39.878 33.419 39.43 32.867 39.43C32.315 39.43 31.867 39.878 31.867 40.43V45.245C31.867 46.764 30.631 48 29.112 48H10.755C9.236 48 8 46.764 8 45.245V4.755C8 3.236 9.236 2 10.755 2H29.112C30.631 2 31.867 3.236 31.867 4.755V9.57C31.867 10.122 32.315 10.57 32.867 10.57C33.419 10.57 33.867 10.122 33.867 9.57V4.755C33.867 2.133 31.734 0 29.112 0H10.755C8.133 0 6 2.133 6 4.755V45.245Z" fill="#121212"/>
<path d="M19.934 46.512C21.0386 46.512 21.934 45.6166 21.934 44.512C21.934 43.4074 21.0386 42.512 19.934 42.512C18.8294 42.512 17.934 43.4074 17.934 44.512C17.934 45.6166 18.8294 46.512 19.934 46.512Z" fill="#121212"/>
<path d="M26.523 4.795C26.523 4.243 26.075 3.795 25.523 3.795H14.344C13.792 3.795 13.344 4.243 13.344 4.795C13.344 5.347 13.792 5.795 14.344 5.795H25.523C26.076 5.795 26.523 5.347 26.523 4.795Z" fill="#121212"/>
<path d="M37.924 40.41C38.069 40.41 38.215 40.379 38.351 40.314C38.701 40.148 38.924 39.796 38.924 39.41V10.59C38.924 10.203 38.701 9.851 38.351 9.686C38.001 9.52 37.587 9.572 37.288 9.818L28.769 16.824H24.362C23.81 16.824 23.362 17.272 23.362 17.824V32.177C23.362 32.729 23.81 33.177 24.362 33.177H28.769L37.288 40.183C37.471 40.333 37.696 40.41 37.924 40.41ZM25.363 18.824H28.128V31.177H25.363V18.824ZM36.924 37.293L30.129 31.704V18.296L36.924 12.707V37.293Z" fill="#121212"/>
<path d="M48.349 21.37C47.958 20.979 47.326 20.979 46.935 21.37L44.719 23.586L42.503 21.37C42.112 20.979 41.48 20.979 41.089 21.37C40.698 21.761 40.698 22.393 41.089 22.784L43.304 25L41.088 27.216C40.697 27.607 40.697 28.239 41.088 28.63C41.283 28.825 41.539 28.923 41.795 28.923C42.051 28.923 42.307 28.825 42.502 28.63L44.718 26.414L46.934 28.63C47.129 28.825 47.385 28.923 47.641 28.923C47.897 28.923 48.153 28.825 48.348 28.63C48.739 28.239 48.739 27.607 48.348 27.216L46.133 25L48.349 22.784C48.739 22.393 48.739 21.76 48.349 21.37Z" fill="#FF6534"/>
<defs>
<linearGradient id="paint0_linear_2_260" x1="20" y1="6.42857" x2="20" y2="59" gradientUnits="userSpaceOnUse">
<stop stop-color="#FF6534" stop-opacity="0.57"/>
<stop offset="1" stop-color="#FF6534" stop-opacity="0"/>
</linearGradient>
</defs>
</svg>
