<svg width="40" height="65" viewBox="0 0 40 65" fill="none" xmlns="http://www.w3.org/2000/svg">
<circle cx="20" cy="45" r="20" fill="url(#paint0_linear_2_276)"/>
<path d="M13.436 45.642C13.436 46.194 13.884 46.642 14.436 46.642H25.553C26.105 46.642 26.553 46.194 26.553 45.642C26.553 45.09 26.105 44.642 25.553 44.642H14.436C13.883 44.642 13.436 45.09 13.436 45.642Z" fill="#FF6534"/>
<path d="M10.852 50H29.137C31.812 50 33.989 47.823 33.989 45.148V25C33.989 24.505 33.627 24.084 33.136 24.011L28.446 23.311L26.228 19.665C26.065 19.397 25.787 19.222 25.476 19.19L21.113 18.74L17.605 14.515C17.252 14.091 16.622 14.033 16.197 14.384C15.772 14.737 15.714 15.367 16.066 15.792L19.126 19.476L17.512 20.552C17.053 20.859 16.929 21.479 17.235 21.939C17.428 22.228 17.745 22.384 18.068 22.384C18.258 22.384 18.451 22.33 18.622 22.216L20.861 20.723L24.779 21.127L26.614 24.143L24.529 26.686L21.614 26.047C21.077 25.93 20.542 26.271 20.423 26.81C20.305 27.35 20.647 27.883 21.186 28.001L24.041 28.626L24.482 31.202L22.48 33.247C22.094 33.642 22.101 34.274 22.496 34.661C22.69 34.851 22.943 34.946 23.195 34.946C23.454 34.946 23.714 34.845 23.91 34.645L26.269 32.235C26.493 32.006 26.594 31.683 26.54 31.367L25.976 28.073L28.25 25.3L31.99 25.858V45.144C31.99 46.717 30.711 47.996 29.138 47.996H10.852C9.279 47.996 8 46.717 8 45.144V4.852C8 3.279 9.279 2 10.852 2H12.376L13.029 3.026C13.968 4.504 15.575 5.386 17.327 5.386H22.662C24.414 5.386 26.021 4.504 26.96 3.026L27.612 2H29.137C30.709 2 31.989 3.279 31.989 4.852V20.956C31.989 21.508 32.437 21.956 32.989 21.956C33.541 21.956 33.989 21.508 33.989 20.956V4.852C33.988 2.176 31.812 0 29.137 0H10.852C8.177 0 6 2.176 6 4.852V45.148C6 47.823 8.176 50 10.852 50ZM25.241 2C24.667 2.869 23.707 3.386 22.661 3.386H17.326C16.281 3.386 15.321 2.869 14.746 2H25.241Z" fill="black"/>
<defs>
<linearGradient id="paint0_linear_2_276" x1="20" y1="6.42857" x2="20" y2="59" gradientUnits="userSpaceOnUse">
<stop stop-color="#FF6534" stop-opacity="0.57"/>
<stop offset="1" stop-color="#FF6534" stop-opacity="0"/>
</linearGradient>
</defs>
</svg>
