<svg width="40" height="65" viewBox="0 0 40 65" fill="none" xmlns="http://www.w3.org/2000/svg">
<circle cx="20" cy="45" r="20" fill="url(#paint0_linear_2_271)"/>
<path d="M29.111 0H11.755C9.133 0 7 2.133 7 4.755V45.245C7 47.867 9.133 50 11.755 50H29.111C31.733 50 33.866 47.867 33.866 45.245V4.755C33.866 2.133 31.733 0 29.111 0ZM24.202 2V2.975C24.202 3.144 24.064 3.283 23.894 3.283H16.971C16.801 3.283 16.663 3.145 16.663 2.975V2H24.202ZM31.866 45.245C31.866 46.764 30.631 48 29.111 48H11.755C10.235 48 9 46.764 9 45.245V4.755C9 3.236 10.235 2 11.755 2H14.664V2.975C14.664 4.247 15.699 5.283 16.972 5.283H23.895C25.167 5.283 26.203 4.248 26.203 2.975V2H29.112C30.632 2 31.867 3.236 31.867 4.755L31.866 45.245Z" fill="black"/>
<path d="M20.933 46.512C22.0376 46.512 22.933 45.6166 22.933 44.512C22.933 43.4074 22.0376 42.512 20.933 42.512C19.8284 42.512 18.933 43.4074 18.933 44.512C18.933 45.6166 19.8284 46.512 20.933 46.512Z" fill="black"/>
<path d="M15.086 18.78L13.443 17.137C13.052 16.746 12.42 16.746 12.029 17.137C11.638 17.528 11.638 18.16 12.029 18.551L13.239 19.76C12.445 20.269 11.691 20.862 10.997 21.556C10.606 21.947 10.606 22.579 10.997 22.97C11.388 23.361 12.02 23.361 12.411 22.97C13.109 22.272 13.883 21.697 14.698 21.219L16.01 22.531C15.172 22.968 14.385 23.538 13.682 24.241C13.291 24.631 13.291 25.264 13.682 25.655C14.073 26.046 14.705 26.046 15.096 25.655C15.811 24.941 16.635 24.403 17.515 24.036L18.942 25.463C17.979 25.72 17.089 26.203 16.366 26.926C15.975 27.317 15.975 27.949 16.366 28.34C16.757 28.731 17.389 28.731 17.78 28.34C18.575 27.545 19.704 27.214 20.793 27.314L24.679 31.2C24.874 31.395 25.13 31.493 25.386 31.493C25.642 31.493 25.898 31.395 26.093 31.2C26.484 30.809 26.484 30.177 26.093 29.786L24.554 28.247C24.866 27.854 24.855 27.289 24.492 26.926C23.717 26.15 22.752 25.636 21.706 25.399L19.787 23.48C21.927 23.299 24.13 24.021 25.764 25.655C25.959 25.85 26.215 25.948 26.471 25.948C26.727 25.948 26.983 25.85 27.178 25.655C27.569 25.264 27.569 24.631 27.178 24.241C24.712 21.775 21.222 20.954 18.064 21.757L16.628 20.321C20.624 18.904 25.257 19.779 28.449 22.971C28.644 23.166 28.9 23.264 29.156 23.264C29.412 23.264 29.668 23.166 29.863 22.971C30.254 22.58 30.254 21.948 29.863 21.557C25.873 17.568 19.969 16.65 15.086 18.78Z" fill="black"/>
<path d="M19.052 29.611C18.684 29.979 18.481 30.469 18.481 30.99C18.481 31.511 18.684 32 19.051 32.367C19.419 32.736 19.909 32.938 20.43 32.938C20.951 32.938 21.441 32.735 21.808 32.368C22.176 32 22.379 31.51 22.379 30.99C22.379 30.47 22.176 29.98 21.809 29.612C21.072 28.875 19.786 28.875 19.052 29.611ZM20.43 31.041C20.413 31.041 20.399 31.031 20.393 31.025L20.43 30.939V31.041Z" fill="#FF6534"/>
<defs>
<linearGradient id="paint0_linear_2_271" x1="20" y1="6.42857" x2="20" y2="59" gradientUnits="userSpaceOnUse">
<stop stop-color="#FF6534" stop-opacity="0.57"/>
<stop offset="1" stop-color="#FF6534" stop-opacity="0"/>
</linearGradient>
</defs>
</svg>
