<svg width="40" height="65" viewBox="0 0 40 65" fill="none" xmlns="http://www.w3.org/2000/svg">
<circle cx="20" cy="45" r="20" fill="url(#paint0_linear_2_261)"/>
<path d="M11.852 50H29.136C31.812 50 33.989 47.823 33.989 45.148V4.852C33.989 2.176 31.812 0 29.137 0H11.852C9.177 0 7 2.176 7 4.852V45.148C7.001 47.823 9.178 50 11.852 50ZM9.001 4.852C9.001 3.279 10.28 2 11.852 2H29.136C30.709 2 31.989 3.279 31.989 4.852V45.148C31.989 46.721 30.71 48 29.136 48H11.852C10.28 48 9 46.721 9 45.148V4.852H9.001Z" fill="black"/>
<path d="M21.053 44.642H19.937C19.384 44.642 18.937 45.09 18.937 45.642C18.937 46.194 19.384 46.642 19.937 46.642H21.053C21.606 46.642 22.053 46.194 22.053 45.642C22.053 45.09 21.605 44.642 21.053 44.642Z" fill="black"/>
<path d="M16.103 5.358H24.886C25.439 5.358 25.886 4.91 25.886 4.358C25.886 3.806 25.439 3.358 24.886 3.358H16.103C15.55 3.358 15.103 3.806 15.103 4.358C15.103 4.91 15.551 5.358 16.103 5.358Z" fill="black"/>
<path d="M27.808 5.357C28.079 5.357 28.329 5.247 28.518 5.067C28.699 4.877 28.808 4.617 28.808 4.357C28.808 4.097 28.699 3.837 28.518 3.647C28.148 3.277 27.468 3.277 27.108 3.647C26.919 3.837 26.808 4.097 26.808 4.357C26.808 4.617 26.918 4.877 27.108 5.067C27.288 5.248 27.548 5.357 27.808 5.357Z" fill="black"/>
<path d="M16.159 39.577H24.83C26.629 39.577 28.093 38.114 28.093 36.315V17.408C28.093 15.61 26.629 14.146 24.83 14.146H24.485V12.644C24.485 11.419 23.489 10.423 22.264 10.423H18.725C17.5 10.423 16.504 11.42 16.504 12.644V14.146H16.158C14.359 14.146 12.896 15.609 12.896 17.408V36.315C12.897 38.113 14.36 39.577 16.159 39.577ZM18.505 12.644C18.505 12.522 18.604 12.423 18.726 12.423H22.265C22.387 12.423 22.486 12.522 22.486 12.644V14.146H18.506L18.505 12.644ZM14.897 17.408C14.897 16.712 15.463 16.146 16.159 16.146H24.83C25.526 16.146 26.093 16.712 26.093 17.408V36.315C26.093 37.011 25.527 37.577 24.83 37.577H16.159C15.464 37.577 14.897 37.011 14.897 36.315V17.408Z" fill="black"/>
<path d="M17.075 35.6H23.914C24.467 35.6 24.914 35.152 24.914 34.6C24.914 34.048 24.467 33.6 23.914 33.6H17.075C16.522 33.6 16.075 34.048 16.075 34.6C16.075 35.152 16.522 35.6 17.075 35.6Z" fill="black"/>
<path d="M17.075 31.878H23.914C24.467 31.878 24.914 31.43 24.914 30.878C24.914 30.326 24.467 29.878 23.914 29.878H17.075C16.522 29.878 16.075 30.326 16.075 30.878C16.075 31.43 16.522 31.878 17.075 31.878Z" fill="black"/>
<path d="M17.075 28.157H23.914C24.467 28.157 24.914 27.709 24.914 27.157C24.914 26.605 24.467 26.157 23.914 26.157H17.075C16.522 26.157 16.075 26.605 16.075 27.157C16.075 27.709 16.522 28.157 17.075 28.157Z" fill="#FF6534"/>
<path d="M17.075 24.435H23.914C24.467 24.435 24.914 23.987 24.914 23.435C24.914 22.883 24.467 22.435 23.914 22.435H17.075C16.522 22.435 16.075 22.883 16.075 23.435C16.075 23.987 16.522 24.435 17.075 24.435Z" fill="#FF6534"/>
<defs>
<linearGradient id="paint0_linear_2_261" x1="20" y1="6.42857" x2="20" y2="59" gradientUnits="userSpaceOnUse">
<stop stop-color="#FF6534" stop-opacity="0.57"/>
<stop offset="1" stop-color="#FF6534" stop-opacity="0"/>
</linearGradient>
</defs>
</svg>
