<svg width="40" height="65" viewBox="0 0 40 65" fill="none" xmlns="http://www.w3.org/2000/svg">
<circle cx="20" cy="45" r="20" fill="url(#paint0_linear_2_268)"/>
<path d="M29.111 0H10.755C8.133 0 6 2.133 6 4.755V45.245C6 47.867 8.133 50 10.755 50H29.111C31.733 50 33.866 47.867 33.866 45.245V4.755C33.866 2.133 31.733 0 29.111 0ZM31.866 45.245C31.866 46.764 30.631 48 29.111 48H10.755C9.235 48 8 46.764 8 45.245V4.755C8 3.236 9.235 2 10.755 2H29.111C30.631 2 31.866 3.236 31.866 4.755V45.245Z" fill="black"/>
<path d="M19.933 46.512C21.0376 46.512 21.933 45.6166 21.933 44.512C21.933 43.4074 21.0376 42.512 19.933 42.512C18.8284 42.512 17.933 43.4074 17.933 44.512C17.933 45.6166 18.8284 46.512 19.933 46.512Z" fill="black"/>
<path d="M14.344 5.795H25.524C26.077 5.795 26.524 5.347 26.524 4.795C26.524 4.243 26.077 3.795 25.524 3.795H14.344C13.791 3.795 13.344 4.243 13.344 4.795C13.344 5.347 13.791 5.795 14.344 5.795Z" fill="black"/>
<path d="M19.677 29.546C19.677 27.869 17.455 24.245 16.775 23.174C16.408 22.597 15.455 22.597 15.087 23.174C14.406 24.245 12.185 27.868 12.185 29.546C12.185 31.611 13.866 33.292 15.931 33.292C17.996 33.292 19.677 31.612 19.677 29.546ZM15.931 31.292C14.968 31.292 14.185 30.509 14.185 29.546C14.185 28.961 14.99 27.282 15.931 25.645C16.872 27.282 17.677 28.961 17.677 29.546C17.677 30.509 16.893 31.292 15.931 31.292Z" fill="black"/>
<path d="M25.523 12.269C25.181 12.269 24.863 12.444 24.679 12.732C24.156 13.555 22.448 16.344 22.448 17.677C22.448 19.372 23.828 20.752 25.523 20.752C27.218 20.752 28.597 19.373 28.597 17.677C28.597 16.344 26.89 13.555 26.367 12.732C26.183 12.444 25.865 12.269 25.523 12.269ZM25.523 18.752C24.93 18.752 24.448 18.27 24.448 17.678C24.453 17.349 24.902 16.349 25.523 15.228C26.144 16.35 26.592 17.35 26.597 17.678C26.598 18.271 26.115 18.752 25.523 18.752Z" fill="#FF6534"/>
<defs>
<linearGradient id="paint0_linear_2_268" x1="20" y1="6.42857" x2="20" y2="59" gradientUnits="userSpaceOnUse">
<stop stop-color="#FF6534" stop-opacity="0.57"/>
<stop offset="1" stop-color="#FF6534" stop-opacity="0"/>
</linearGradient>
</defs>
</svg>
