<svg width="40" height="65" viewBox="0 0 40 65" fill="none" xmlns="http://www.w3.org/2000/svg">
<circle cx="20" cy="45" r="20" fill="url(#paint0_linear_10_59)"/>
<path d="M5.394 46.431H11.812C12.198 48.46 13.979 50 16.119 50H33.98C36.4 50 38.369 48.031 38.369 45.611V7.962C38.369 5.542 36.4 3.573 33.98 3.573H27.557C27.176 1.542 25.396 0 23.258 0H5.394C2.971 0 1 1.966 1 4.382V42.037C1.001 44.46 2.972 46.431 5.394 46.431ZM13.729 22.333H14.805C15.429 22.333 15.936 22.84 15.936 23.463V41.004C15.936 41.628 15.429 42.134 14.805 42.134H13.729V22.333ZM36.369 35.815H35.172C34.615 35.815 34.163 35.362 34.163 34.806V17.022C34.163 16.465 34.615 16.013 35.172 16.013H36.369V35.815ZM36.369 7.961V14.012H35.172C33.513 14.012 32.163 15.362 32.163 17.021V34.805C32.163 36.464 33.513 37.814 35.172 37.814H36.369V45.61C36.369 46.927 35.298 47.999 33.98 47.999H16.119C14.802 47.999 13.729 46.927 13.729 45.61V45.435L13.73 45.43L13.729 45.425V44.134H14.805C16.532 44.134 17.936 42.73 17.936 41.004V23.464C17.936 21.738 16.532 20.334 14.805 20.334H13.729V7.961C13.729 6.644 14.801 5.572 16.119 5.572H33.979C35.298 5.572 36.369 6.644 36.369 7.961ZM3.001 4.382C3.001 3.069 4.075 2 5.394 2H23.257C24.285 2 25.155 2.658 25.488 3.572H16.119C13.698 3.572 11.729 5.541 11.729 7.961V44.431H5.394C4.075 44.431 3 43.357 3 42.037V4.382H3.001Z" fill="white"/>
<path d="M19.716 7.905C18.053 7.905 16.7 9.258 16.7 10.92V14.768C16.7 16.431 18.053 17.783 19.716 17.783C21.378 17.783 22.731 16.43 22.731 14.768V10.92C22.73 9.258 21.378 7.905 19.716 7.905ZM20.73 14.768C20.73 15.328 20.275 15.783 19.715 15.783C19.155 15.783 18.699 15.327 18.699 14.768V10.92C18.699 10.36 19.155 9.905 19.715 9.905C20.275 9.905 20.73 10.361 20.73 10.92V14.768Z" fill="#FF6534"/>
<path d="M6.197 10.614C6.75 10.614 7.197 10.166 7.197 9.614V5.46C7.197 4.908 6.75 4.46 6.197 4.46C5.644 4.46 5.197 4.908 5.197 5.46V9.614C5.197 10.166 5.644 10.614 6.197 10.614Z" fill="white"/>
<path d="M6.197 14.793C6.75 14.793 7.197 14.345 7.197 13.793V12.641C7.197 12.089 6.75 11.641 6.197 11.641C5.644 11.641 5.197 12.089 5.197 12.641V13.793C5.197 14.346 5.644 14.793 6.197 14.793Z" fill="#FF6534"/>
<defs>
<linearGradient id="paint0_linear_10_59" x1="20" y1="6.42857" x2="20" y2="69" gradientUnits="userSpaceOnUse">
<stop stop-color="#FF6534" stop-opacity="0.57"/>
<stop offset="1" stop-color="#FF6534" stop-opacity="0"/>
</linearGradient>
</defs>
</svg>
