<svg width="40" height="65" viewBox="0 0 40 65" fill="none" xmlns="http://www.w3.org/2000/svg">
<circle cx="20" cy="45" r="20" fill="url(#paint0_linear_3_281)"/>
<path d="M34.885 43.001H34.166C34.605 40.214 35.598 33.191 35.1 29.559C34.513 25.281 27.661 20.26 25.713 18.911V3.756C25.713 1.685 24.028 0 21.956 0H5.756C3.685 0 2 1.685 2 3.756V36.672C2 38.749 3.69 40.439 5.767 40.439H20.869C21.206 41.472 21.455 42.349 21.628 43.002H20.579C20.027 43.002 19.579 43.45 19.579 44.002V49C19.579 49.552 20.027 50 20.579 50H34.885C35.437 50 35.885 49.552 35.885 49V44.001C35.885 43.449 35.437 43.001 34.885 43.001ZM17.138 2L17.048 2.376C16.899 3.007 16.34 3.447 15.692 3.447H12.025C11.376 3.447 10.818 3.006 10.668 2.375L10.577 2H17.138ZM5.768 38.438C4.793 38.438 4.001 37.646 4.001 36.671V12.341L6.834 15.307C7.173 15.662 7.723 15.719 8.129 15.436L12.554 12.353L14.703 15.902C14.891 16.213 15.221 16.384 15.559 16.384C15.735 16.384 15.914 16.338 16.076 16.239C16.548 15.953 16.7 15.338 16.413 14.865L13.712 10.404C13.569 10.168 13.334 10.001 13.064 9.944C12.794 9.887 12.511 9.943 12.285 10.102L7.688 13.305L4 9.444V3.756C4.001 2.788 4.789 2 5.757 2H8.522L8.722 2.839C9.087 4.375 10.446 5.448 12.025 5.448H15.692C17.272 5.448 18.63 4.375 18.994 2.839L19.193 2H21.956C22.924 2 23.712 2.788 23.712 3.756L23.713 28.682L20.849 25.523C19.848 24.419 18.413 23.801 16.929 23.838C15.438 23.871 14.038 24.549 13.087 25.697C12.744 26.111 12.79 26.721 13.19 27.08C16.523 30.062 18.785 34.728 20.17 38.438H5.768ZM15.323 26.35C15.809 26.031 16.38 25.85 16.974 25.837C17.896 25.834 18.757 26.191 19.369 26.866L23.974 31.945C24.252 32.251 24.691 32.354 25.075 32.206C25.461 32.057 25.715 31.686 25.715 31.273L25.714 21.378C28.51 23.472 32.753 27.165 33.119 29.831C33.596 33.308 32.528 40.567 32.14 43.001H23.699C23.039 40.335 20.571 31.652 15.323 26.35ZM33.885 48H21.58V45.001H33.886L33.885 48Z" fill="white"/>
<path d="M13.857 37.371C14.9616 37.371 15.857 36.4756 15.857 35.371C15.857 34.2664 14.9616 33.371 13.857 33.371C12.7524 33.371 11.857 34.2664 11.857 35.371C11.857 36.4756 12.7524 37.371 13.857 37.371Z" fill="white"/>
<defs>
<linearGradient id="paint0_linear_3_281" x1="20" y1="6.42857" x2="20" y2="65" gradientUnits="userSpaceOnUse">
<stop stop-color="#FF6534" stop-opacity="0.57"/>
<stop offset="1" stop-color="#FF6534" stop-opacity="0"/>
</linearGradient>
</defs>
</svg>
