<svg width="40" height="65" viewBox="0 0 40 65" fill="none" xmlns="http://www.w3.org/2000/svg">
<circle cx="20" cy="45" r="20" fill="url(#paint0_linear_3_295)"/>
<path d="M31.7652 22.73C31.2122 22.73 30.7652 23.178 30.7652 23.73V45.74C30.7652 46.986 29.7512 47.999 28.5062 47.999H10.5603C9.31525 47.999 8.30125 46.985 8.30125 45.74V30.928L9.89525 32.522C10.0902 32.717 10.3463 32.815 10.6023 32.815C10.8583 32.815 11.1142 32.717 11.3092 32.522C11.7002 32.131 11.7002 31.499 11.3092 31.108L8.00925 27.808C7.91725 27.715 7.80625 27.642 7.68325 27.591C7.43925 27.49 7.16325 27.49 6.91925 27.591C6.79625 27.642 6.68625 27.715 6.59325 27.808L3.29325 31.108C2.90225 31.499 2.90225 32.131 3.29325 32.522C3.68425 32.913 4.31625 32.913 4.70725 32.522L6.30125 30.928V45.741C6.30125 48.09 8.21125 50 10.5603 50H28.5062C30.8552 50 32.7652 48.089 32.7652 45.741V23.73C32.7652 23.178 32.3182 22.73 31.7652 22.73Z" fill="white"/>
<path d="M34.3593 14.599L32.7652 16.193V4.259C32.7652 1.91 30.8553 0 28.5063 0H10.5592C8.21025 0 6.30025 1.911 6.30025 4.259V23.389C6.30025 23.941 6.74725 24.389 7.30025 24.389C7.85325 24.389 8.30025 23.941 8.30025 23.389V4.259C8.30125 3.014 9.31525 2 10.5603 2H13.6412L13.9483 2.796C14.5083 4.244 15.9272 5.217 17.4782 5.217H21.5883C23.1403 5.217 24.5592 4.244 25.1182 2.796L25.4263 2H28.5063C29.7513 2 30.7652 3.014 30.7652 4.259V16.193L29.1713 14.599C28.7803 14.208 28.1482 14.208 27.7572 14.599C27.3662 14.989 27.3662 15.622 27.7572 16.013L31.0572 19.313C31.1492 19.405 31.2583 19.478 31.3803 19.529C31.5013 19.58 31.6312 19.607 31.7652 19.607C31.8992 19.607 32.0293 19.58 32.1503 19.529C32.2723 19.478 32.3812 19.405 32.4732 19.313L35.7733 16.013C36.1643 15.622 36.1643 14.989 35.7733 14.599C35.3823 14.208 34.7493 14.208 34.3593 14.599ZM23.2533 2.075C22.9893 2.758 22.3193 3.217 21.5883 3.217H17.4782C16.7472 3.217 16.0773 2.758 15.8133 2.076L15.7842 2H23.2823L23.2533 2.075Z" fill="white"/>
<path d="M25.4483 20.504C25.0573 20.113 24.4253 20.113 24.0343 20.504L17.1632 27.375L15.0333 25.246C14.6423 24.855 14.0103 24.855 13.6193 25.246C13.2283 25.637 13.2283 26.269 13.6193 26.66L16.4553 29.496C16.6503 29.691 16.9063 29.789 17.1623 29.789C17.4183 29.789 17.6743 29.691 17.8693 29.496L25.4473 21.918C25.8383 21.527 25.8383 20.895 25.4483 20.504Z" fill="white"/>
<path d="M19.5333 46.732C20.6378 46.732 21.5333 45.8366 21.5333 44.732C21.5333 43.6274 20.6378 42.732 19.5333 42.732C18.4287 42.732 17.5332 43.6274 17.5332 44.732C17.5332 45.8366 18.4287 46.732 19.5333 46.732Z" fill="white"/>
<defs>
<linearGradient id="paint0_linear_3_295" x1="20" y1="6.42857" x2="20" y2="69" gradientUnits="userSpaceOnUse">
<stop stop-color="#FF6534" stop-opacity="0.57"/>
<stop offset="1" stop-color="#FF6534" stop-opacity="0"/>
</linearGradient>
</defs>
</svg>
