<svg width="43" height="61" viewBox="0 0 43 61" fill="none" xmlns="http://www.w3.org/2000/svg">
<circle cx="21" cy="41" r="20" fill="url(#paint0_linear_3_298)"/>
<path d="M39.4261 8.13089L41.2455 2.8832C41.3602 2.55108 41.2727 2.18492 41.0198 1.93744C40.7669 1.68904 40.3926 1.60348 40.0532 1.71664L34.69 3.49684L30.1504 0.182995C29.8617 -0.0276849 29.48 -0.0580447 29.1612 0.100196C28.8425 0.259356 28.6431 0.581356 28.6479 0.931877L28.7203 6.47213L24.097 9.67189C23.8046 9.87429 23.6551 10.2211 23.7105 10.5671C23.766 10.913 24.0189 11.1982 24.3603 11.3021L29.7677 12.9471L31.4489 18.238C31.5551 18.572 31.8466 18.8185 32.2002 18.8737C32.249 18.8811 32.2979 18.8848 32.3468 18.8848C32.6487 18.8848 32.9364 18.7422 33.1141 18.4965L36.3843 13.9729L42.0475 14.0437C42.4086 14.0465 42.7348 13.8533 42.8975 13.5414C43.0602 13.2295 43.0272 12.8542 42.8129 12.5736L39.4261 8.13089ZM35.9142 12.1255C35.603 12.1292 35.3134 12.2672 35.1347 12.5138L32.6797 15.9104L31.4179 11.9379C31.3257 11.649 31.0944 11.4217 30.7992 11.3325L26.7391 10.0969L30.2106 7.69481C30.4635 7.52001 30.6121 7.23481 30.6083 6.93213L30.5538 2.77188L33.9613 5.26049C34.2104 5.44173 34.5329 5.49141 34.8254 5.39481L38.8525 4.05804L37.4863 7.99841C37.3876 8.28545 37.4383 8.60193 37.6236 8.84389L40.167 12.1789L35.9142 12.1255Z" fill="white"/>
<path d="M34.7774 46C36.9109 46 38.6466 44.3017 38.6466 42.2142C38.6466 40.1267 36.9109 38.4284 34.7774 38.4284H23.7792C22.6828 38.4284 21.7905 37.5553 21.7905 36.4467C21.7905 35.374 22.6828 34.5009 23.7792 34.5009H37.7063C38.2253 34.5009 38.6466 34.0887 38.6466 33.5809C38.6466 33.0731 38.2253 32.6609 37.7063 32.6609H23.7792C21.6457 32.6609 19.91 34.3592 19.91 36.4826C19.91 38.5701 21.6457 40.2684 23.7792 40.2684H34.7765C35.8738 40.2684 36.7651 41.1415 36.7651 42.2142C36.7651 43.2869 35.8728 44.16 34.7765 44.16H4.44461C3.37365 44.16 2.70513 43.482 2.43621 42.8472C2.24534 42.3964 2.18705 41.791 2.4381 41.2123C3.3304 41.7836 4.35811 42.0707 5.38675 42.0707C6.76611 42.0707 8.14547 41.5564 9.19575 40.5297L22.0895 27.9146C22.2663 27.7416 22.365 27.508 22.365 27.2642C22.365 27.0204 22.2663 26.7858 22.0895 26.6137L21.4746 26.012L29.0644 18.5858C29.432 18.2261 29.432 17.6446 29.0644 17.2849C28.6967 16.9252 28.1025 16.9252 27.7349 17.2849L20.146 24.7102L17.7465 22.3624L25.3353 14.9371C25.703 14.5773 25.703 13.9959 25.3353 13.6362C24.9677 13.2765 24.3734 13.2765 24.0058 13.6362L16.4169 21.0615L15.802 20.4598C15.4344 20.1001 14.8401 20.1001 14.4725 20.4598L1.57776 33.0749C0.559455 34.0703 0 35.3942 0 36.8018C0 37.9297 0.374224 38.9951 1.04087 39.8894C0.317808 40.9704 0.173008 42.308 0.698613 43.551C1.33893 45.0616 2.77377 46 4.44461 46H34.7774ZM2.90823 34.3758L15.1363 22.4112L20.0952 27.2632L7.86622 39.2279C6.49908 40.5656 4.27536 40.5656 2.90823 39.2279C2.24534 38.5793 1.88146 37.7181 1.88146 36.8018C1.88146 35.8855 2.24534 35.0244 2.90823 34.3758Z" fill="white"/>
<defs>
<linearGradient id="paint0_linear_3_298" x1="21" y1="2.42857" x2="21" y2="70" gradientUnits="userSpaceOnUse">
<stop stop-color="#FF6534" stop-opacity="0.57"/>
<stop offset="1" stop-color="#FF6534" stop-opacity="0"/>
</linearGradient>
</defs>
</svg>
