<svg width="556" height="85" viewBox="0 0 556 85" fill="none" xmlns="http://www.w3.org/2000/svg">
<path d="M77.9522 15.9881H37.6034C37.597 15.9881 37.5905 15.9837 37.5818 15.9837C37.5732 15.9837 37.5689 15.9881 37.5602 15.9881H30.0456C28.8511 15.9881 27.8856 16.9706 27.8856 18.1812V66.821C27.8856 68.0316 28.8511 69.0141 30.0456 69.0141H77.9501C79.1446 69.0141 80.1101 68.0316 80.1101 66.821V18.1812C80.1122 16.9706 79.1467 15.9881 77.9522 15.9881ZM75.7922 56.8619C56.4516 55.7565 40.945 40.0119 39.852 20.3744H75.7922V56.8619ZM32.2078 64.6278V20.3744H35.532C36.6336 42.4309 54.0691 60.1319 75.7922 61.2482V64.6256L32.2078 64.6278Z" fill="#FF6534"/>
<path d="M105.84 14.9705C107.034 14.9705 108 13.9879 108 12.7773C108 11.5667 107.034 10.5842 105.84 10.5842H96.8825C96.4483 4.68238 91.6337 0 85.7153 0H62.2058C61.0114 0 60.0458 0.982532 60.0458 2.19315C60.0458 5.57719 57.3329 8.33179 54 8.33179C50.6671 8.33179 47.9542 5.57938 47.9542 2.19315C47.9542 0.982532 46.9886 0 45.7942 0H22.2847C16.362 0 11.5474 4.68238 11.1154 10.5842H2.16C0.96552 10.5842 0 11.5667 0 12.7773C0 13.9879 0.96552 14.9705 2.16 14.9705H11.0311V25.445H2.16C0.96552 25.445 0 26.4275 0 27.6381C0 28.8487 0.96552 29.8313 2.16 29.8313H11.0311V40.3079H2.16C0.96552 40.3079 0 41.2905 0 42.5011C0 43.7117 0.96552 44.6943 2.16 44.6943H11.0311V55.1688H2.16C0.96552 55.1688 0 56.1513 0 57.3619C0 58.5725 0.96552 59.5551 2.16 59.5551H11.0311V70.0317H2.16C0.96552 70.0317 0 71.0143 0 72.2249C0 73.4355 0.96552 74.418 2.16 74.418H11.1154C11.5495 80.3198 16.3642 85 22.2847 85H45.7942C46.9886 85 47.9542 84.0175 47.9542 82.8068C47.9542 79.4228 50.6671 76.6682 54 76.6682C57.3329 76.6682 60.0458 79.4206 60.0458 82.8068C60.0458 84.0175 61.0114 85 62.2058 85H85.7153C91.6337 85 96.4483 80.3176 96.8825 74.418H105.84C107.034 74.418 108 73.4355 108 72.2249C108 71.0143 107.034 70.0317 105.84 70.0317H96.9667V59.5551H105.84C107.034 59.5551 108 58.5725 108 57.3619C108 56.1513 107.034 55.1688 105.84 55.1688H96.9667V44.6943H105.84C107.034 44.6943 108 43.7117 108 42.5011C108 41.2905 107.034 40.3079 105.84 40.3079H96.9667V29.8335H105.84C107.034 29.8335 108 28.8509 108 27.6403C108 26.4297 107.034 25.4471 105.84 25.4471H96.9667V14.9727L105.84 14.9705ZM92.6467 73.5759C92.6467 77.4578 89.5385 80.6137 85.7153 80.6137H64.1412C63.1411 75.8611 58.9745 72.2841 54 72.2841C49.0255 72.2841 44.8589 75.8612 43.861 80.6159H22.2869C18.4637 80.6159 15.3533 77.4578 15.3533 73.5781V11.4263C15.3533 7.54444 18.4637 4.3885 22.2869 4.3885H43.861C44.8589 9.14106 49.0277 12.7203 54 12.7203C58.9723 12.7203 63.1411 9.14325 64.139 4.3885H85.7131C89.5363 4.3885 92.6446 7.54664 92.6446 11.4263L92.6467 73.5759Z" fill="#FF6534"/>
<path d="M150.4 84V13.08H122.68V4.56H187.12V13.08H159.4V84H150.4Z" fill="white"/>
<path d="M211.573 84.96C205.493 84.96 200.173 83.6 195.613 80.88C191.053 78.08 187.493 74.32 184.933 69.6C182.453 64.88 181.213 59.68 181.213 54C181.213 48.24 182.413 43.04 184.813 38.4C187.213 33.68 190.653 29.96 195.133 27.24C199.613 24.44 204.893 23.04 210.973 23.04C217.133 23.04 222.413 24.44 226.813 27.24C231.293 29.96 234.733 33.68 237.133 38.4C239.533 43.04 240.733 48.24 240.733 54V57.6H190.453C190.933 61.12 192.053 64.36 193.813 67.32C195.653 70.2 198.093 72.52 201.133 74.28C204.173 75.96 207.693 76.8 211.693 76.8C215.933 76.8 219.493 75.88 222.373 74.04C225.253 72.12 227.493 69.68 229.093 66.72H238.933C236.853 72.08 233.533 76.48 228.973 79.92C224.493 83.28 218.693 84.96 211.573 84.96ZM190.573 49.2H231.373C230.573 44.08 228.413 39.8 224.893 36.36C221.373 32.92 216.733 31.2 210.973 31.2C205.213 31.2 200.573 32.92 197.053 36.36C193.613 39.8 191.453 44.08 190.573 49.2Z" fill="white"/>
<path d="M277.53 84.96C271.53 84.96 266.33 83.6 261.93 80.88C257.53 78.08 254.09 74.32 251.61 69.6C249.21 64.88 248.01 59.68 248.01 54C248.01 48.24 249.21 43.04 251.61 38.4C254.09 33.68 257.53 29.96 261.93 27.24C266.33 24.44 271.53 23.04 277.53 23.04C284.65 23.04 290.69 24.88 295.65 28.56C300.69 32.24 304.09 37 305.85 42.84H296.13C294.77 39.4 292.57 36.6 289.53 34.44C286.57 32.28 282.97 31.2 278.73 31.2C274.33 31.2 270.49 32.24 267.21 34.32C263.93 36.4 261.41 39.16 259.65 42.6C257.89 46.04 257.01 49.84 257.01 54C257.01 58.08 257.89 61.88 259.65 65.4C261.41 68.84 263.93 71.6 267.21 73.68C270.49 75.76 274.33 76.8 278.73 76.8C282.97 76.8 286.57 75.72 289.53 73.56C292.57 71.4 294.77 68.6 296.13 65.16H305.85C304.09 71 300.69 75.76 295.65 79.44C290.69 83.12 284.65 84.96 277.53 84.96Z" fill="white"/>
<path d="M317.003 84V0H326.003V33.36C328.163 30.48 330.803 28.04 333.923 26.04C337.043 24.04 341.043 23.04 345.923 23.04C350.083 23.04 353.963 24.04 357.563 26.04C361.243 27.96 364.203 30.88 366.443 34.8C368.763 38.64 369.923 43.4 369.923 49.08V84H360.923V49.32C360.923 43.88 359.363 39.52 356.243 36.24C353.123 32.88 349.083 31.2 344.123 31.2C340.763 31.2 337.723 31.96 335.003 33.48C332.283 35 330.083 37.16 328.403 39.96C326.803 42.68 326.003 45.84 326.003 49.44V84H317.003Z" fill="white"/>
<path d="M386.892 84V4.56H422.652C431.132 4.56 437.812 6.88 442.692 11.52C447.572 16.08 450.012 22.28 450.012 30.12C450.012 37.96 447.572 44.2 442.692 48.84C437.812 53.4 431.132 55.68 422.652 55.68H395.892V84H386.892ZM395.892 47.28H422.052C428.292 47.28 433.012 45.76 436.212 42.72C439.412 39.68 441.012 35.48 441.012 30.12C441.012 24.84 439.412 20.68 436.212 17.64C433.012 14.6 428.292 13.08 422.052 13.08H395.892V47.28Z" fill="white"/>
<path d="M460.323 84V24H469.323V38.76C469.643 37.72 470.243 36.36 471.123 34.68C472.083 32.92 473.443 31.16 475.203 29.4C476.963 27.64 479.163 26.16 481.803 24.96C484.523 23.68 487.723 23.04 491.403 23.04H492.003V32.04H490.923C486.443 32.04 482.563 33.28 479.283 35.76C476.083 38.16 473.603 41.32 471.843 45.24C470.163 49.08 469.323 53.2 469.323 57.6V84H460.323Z" fill="white"/>
<path d="M526.207 84.96C520.127 84.96 514.847 83.6 510.367 80.88C505.887 78.08 502.447 74.32 500.047 69.6C497.647 64.88 496.447 59.68 496.447 54C496.447 48.24 497.647 43.04 500.047 38.4C502.447 33.68 505.887 29.96 510.367 27.24C514.847 24.44 520.127 23.04 526.207 23.04C532.367 23.04 537.647 24.44 542.047 27.24C546.527 29.96 549.967 33.68 552.367 38.4C554.767 43.04 555.967 48.24 555.967 54C555.967 59.68 554.767 64.88 552.367 69.6C549.967 74.32 546.527 78.08 542.047 80.88C537.647 83.6 532.367 84.96 526.207 84.96ZM526.207 76.8C530.687 76.8 534.447 75.76 537.487 73.68C540.607 71.6 542.967 68.84 544.567 65.4C546.167 61.88 546.967 58.08 546.967 54C546.967 49.84 546.167 46.04 544.567 42.6C542.967 39.16 540.607 36.4 537.487 34.32C534.447 32.24 530.687 31.2 526.207 31.2C521.807 31.2 518.047 32.24 514.927 34.32C511.807 36.4 509.447 39.16 507.847 42.6C506.247 46.04 505.447 49.84 505.447 54C505.447 58.08 506.247 61.88 507.847 65.4C509.447 68.84 511.807 71.6 514.927 73.68C518.047 75.76 521.807 76.8 526.207 76.8Z" fill="white"/>
</svg>
